<mxfile host="drawio-plugin" modified="2021-05-03T19:13:33.377Z" agent="5.0 (Windows NT 6.2; Win64; x64) AppleWebKit/537.36 (KHTML, like Gecko) Chrome/87.0.4280.141 Safari/537.36" etag="Dxyx4Saas6XTCWR5WfDh" version="13.7.9" type="embed"><diagram id="FNPLsW9dklXyZ066ThEx" name="Page-1"><mxGraphModel dx="1160" dy="669" grid="1" gridSize="10" guides="1" tooltips="1" connect="1" arrows="1" fold="1" page="1" pageScale="1" pageWidth="850" pageHeight="1100" math="0" shadow="1"><root><mxCell id="0"/><mxCell id="1" parent="0"/><mxCell id="17" value="" style="group;shadow=1;" parent="1" vertex="1" connectable="0"><mxGeometry x="33" y="253" width="785" height="595" as="geometry"/></mxCell><mxCell id="2" value="" style="rounded=0;whiteSpace=wrap;html=1;fillColor=#f5f5f5;strokeColor=#666666;fontColor=#333333;shadow=1;" parent="17" vertex="1"><mxGeometry width="785" height="595" as="geometry"/></mxCell><mxCell id="4" value="" style="rounded=0;whiteSpace=wrap;html=1;shadow=1;" parent="17" vertex="1"><mxGeometry width="785" height="27" as="geometry"/></mxCell><mxCell id="9" value="" style="group;shadow=1;sketch=0;rounded=0;" parent="1" vertex="1" connectable="0"><mxGeometry x="70" y="430" width="700" height="280" as="geometry"/></mxCell><mxCell id="10" value="&lt;font style=&quot;font-size: 24px&quot;&gt;&lt;b&gt;Descriptor Text&lt;/b&gt;&lt;/font&gt;" style="rounded=0;whiteSpace=wrap;html=1;fillColor=#f5f5f5;strokeColor=#666666;fontColor=#333333;shadow=1;sketch=0;" parent="9" vertex="1"><mxGeometry width="700" height="280" as="geometry"/></mxCell><mxCell id="11" value="" style="endArrow=none;html=1;entryX=1;entryY=1;entryDx=0;entryDy=0;exitX=0;exitY=0;exitDx=0;exitDy=0;strokeColor=#030303;shadow=1;" parent="9" source="10" target="10" edge="1"><mxGeometry width="50" height="50" relative="1" as="geometry"><mxPoint x="100.00000000000001" y="-93.33333333333333" as="sourcePoint"/><mxPoint x="266.6666666666667" y="-210" as="targetPoint"/></mxGeometry></mxCell><mxCell id="12" value="" style="endArrow=none;html=1;entryX=0;entryY=1;entryDx=0;entryDy=0;exitX=1;exitY=0;exitDx=0;exitDy=0;strokeColor=#030303;shadow=1;" parent="9" source="10" target="10" edge="1"><mxGeometry width="50" height="50" relative="1" as="geometry"><mxPoint x="33.333333333333336" y="23.333333333333332" as="sourcePoint"/><mxPoint x="733.3333333333334" y="303.3333333333333" as="targetPoint"/></mxGeometry></mxCell><mxCell id="14" value="&lt;font style=&quot;font-size: 24px&quot;&gt;&lt;b&gt;Quit Button&lt;/b&gt;&lt;/font&gt;" style="rounded=0;whiteSpace=wrap;html=1;fillColor=#f5f5f5;strokeColor=#666666;fontColor=#333333;shadow=1;sketch=0;" parent="1" vertex="1"><mxGeometry x="180" y="750" width="180" height="60" as="geometry"/></mxCell><mxCell id="15" value="" style="endArrow=none;html=1;entryX=1;entryY=1;entryDx=0;entryDy=0;exitX=0;exitY=0;exitDx=0;exitDy=0;strokeColor=#030303;shadow=1;" parent="1" source="14" target="14" edge="1"><mxGeometry width="50" height="50" relative="1" as="geometry"><mxPoint x="405.7142857142857" y="750" as="sourcePoint"/><mxPoint x="448.57142857142856" y="725" as="targetPoint"/></mxGeometry></mxCell><mxCell id="16" value="" style="endArrow=none;html=1;entryX=0;entryY=1;entryDx=0;entryDy=0;exitX=1;exitY=0;exitDx=0;exitDy=0;strokeColor=#030303;shadow=1;" parent="1" source="14" target="14" edge="1"><mxGeometry width="50" height="50" relative="1" as="geometry"><mxPoint x="388.57142857142856" y="775" as="sourcePoint"/><mxPoint x="568.5714285714286" y="835" as="targetPoint"/></mxGeometry></mxCell><mxCell id="19" value="" style="group;shadow=1;sketch=0;rounded=0;" vertex="1" connectable="0" parent="1"><mxGeometry x="245" y="300" width="360" height="70" as="geometry"/></mxCell><mxCell id="20" value="&lt;font style=&quot;font-size: 24px&quot;&gt;&lt;b&gt;Title&lt;/b&gt;&lt;/font&gt;" style="rounded=0;whiteSpace=wrap;html=1;fillColor=#f5f5f5;strokeColor=#666666;fontColor=#333333;shadow=1;" vertex="1" parent="19"><mxGeometry width="360" height="70" as="geometry"/></mxCell><mxCell id="21" value="" style="endArrow=none;html=1;entryX=1;entryY=1;entryDx=0;entryDy=0;exitX=0;exitY=0;exitDx=0;exitDy=0;strokeColor=#030303;shadow=1;" edge="1" parent="19" source="20" target="20"><mxGeometry width="50" height="50" relative="1" as="geometry"><mxPoint x="51.42857142857143" y="-23.333333333333332" as="sourcePoint"/><mxPoint x="137.14285714285717" y="-52.5" as="targetPoint"/></mxGeometry></mxCell><mxCell id="22" value="" style="endArrow=none;html=1;entryX=0;entryY=1;entryDx=0;entryDy=0;exitX=1;exitY=0;exitDx=0;exitDy=0;strokeColor=#030303;shadow=1;" edge="1" parent="19" source="20" target="20"><mxGeometry width="50" height="50" relative="1" as="geometry"><mxPoint x="17.142857142857146" y="5.833333333333333" as="sourcePoint"/><mxPoint x="377.14285714285717" y="75.83333333333333" as="targetPoint"/></mxGeometry></mxCell><mxCell id="31" value="&lt;font style=&quot;font-size: 24px&quot;&gt;&lt;b&gt;Start Button&lt;/b&gt;&lt;/font&gt;" style="rounded=0;whiteSpace=wrap;html=1;fillColor=#f5f5f5;strokeColor=#666666;fontColor=#333333;shadow=1;sketch=0;" vertex="1" parent="1"><mxGeometry x="500" y="750" width="180" height="60" as="geometry"/></mxCell><mxCell id="32" value="" style="endArrow=none;html=1;entryX=1;entryY=1;entryDx=0;entryDy=0;exitX=0;exitY=0;exitDx=0;exitDy=0;strokeColor=#030303;shadow=1;" edge="1" parent="1" source="31" target="31"><mxGeometry width="50" height="50" relative="1" as="geometry"><mxPoint x="630.7142857142858" y="750" as="sourcePoint"/><mxPoint x="673.5714285714286" y="725" as="targetPoint"/></mxGeometry></mxCell><mxCell id="33" value="" style="endArrow=none;html=1;entryX=0;entryY=1;entryDx=0;entryDy=0;exitX=1;exitY=0;exitDx=0;exitDy=0;strokeColor=#030303;shadow=1;" edge="1" parent="1" source="31" target="31"><mxGeometry width="50" height="50" relative="1" as="geometry"><mxPoint x="613.5714285714286" y="775" as="sourcePoint"/><mxPoint x="793.5714285714286" y="835" as="targetPoint"/></mxGeometry></mxCell></root></mxGraphModel></diagram></mxfile>